<?xml version="1.0" encoding="UTF-8" standalone="no"?>
<svg
   xmlns:dc="http://purl.org/dc/elements/1.1/"
   xmlns:cc="http://creativecommons.org/ns#"
   xmlns:rdf="http://www.w3.org/1999/02/22-rdf-syntax-ns#"
   xmlns:svg="http://www.w3.org/2000/svg"
   xmlns="http://www.w3.org/2000/svg"
   xmlns:sodipodi="http://sodipodi.sourceforge.net/DTD/sodipodi-0.dtd"
   xmlns:inkscape="http://www.inkscape.org/namespaces/inkscape"
   sodipodi:docname="depelitos redondo.svg"
   inkscape:version="1.0 (4035a4fb49, 2020-05-01)"
   id="svg66"
   version="1.1"
   viewBox="0 0 156 160.99999"
   height="608.50397"
   width="589.60632">
  <defs
     id="defs60">
    <rect
       id="rect228"
       height="206.33206"
       width="219.161"
       y="-22.450639"
       x="-22.985178" />
    <rect
       id="rect222"
       height="222.36823"
       width="163.56894"
       y="180.67419"
       x="140.58376" />
    <rect
       x="-134.17766"
       y="78.343384"
       width="120.73066"
       height="30.401909"
       id="rect897" />
    <rect
       x="-134.17766"
       y="78.343384"
       width="120.73066"
       height="30.401909"
       id="rect106" />
    <rect
       x="25.63151"
       y="219.52148"
       width="167.01823"
       height="31.005859"
       id="rect1039" />
    <rect
       x="25.63151"
       y="219.52148"
       width="167.01823"
       height="31.005859"
       id="rect109" />
  </defs>
  <sodipodi:namedview
     inkscape:window-maximized="0"
     inkscape:window-y="4"
     inkscape:window-x="78"
     inkscape:window-height="967"
     inkscape:window-width="1260"
     units="px"
     width="241mm"
     scale-x="1"
     inkscape:pagecheckerboard="true"
     showgrid="false"
     inkscape:document-rotation="0"
     inkscape:current-layer="layer1"
     inkscape:document-units="px"
     inkscape:cy="327.76315"
     inkscape:cx="285.39972"
     inkscape:zoom="0.49497475"
     inkscape:pageshadow="2"
     inkscape:pageopacity="0.0"
     borderopacity="1.0"
     bordercolor="#666666"
     pagecolor="#ffffff"
     id="base" />
  <metadata
     id="metadata63">
    <rdf:RDF>
      <cc:Work
         rdf:about="">
        <dc:format>image/svg+xml</dc:format>
        <dc:type
           rdf:resource="http://purl.org/dc/dcmitype/StillImage" />
        <dc:title></dc:title>
      </cc:Work>
    </rdf:RDF>
  </metadata>
  <g
     id="layer1"
     inkscape:groupmode="layer"
     inkscape:label="Capa 1">
    <g
       id="g246">
      <circle
         style="fill:#f6a7bd;fill-rule:evenodd;stroke:#f6a7bd;stroke-width:1.19998;paint-order:stroke fill markers"
         id="path188"
         cx="76.351196"
         cy="80.130951"
         r="65.917862" />
      <g
         style="stroke-width:1.5;stroke-miterlimit:4;stroke-dasharray:none"
         id="g876"
         transform="matrix(0.96119717,0,0,0.96119717,-32.246622,-28.351466)">
        <path
           style="fill:none;stroke:#000000;stroke-width:1.5;stroke-linecap:butt;stroke-linejoin:miter;stroke-miterlimit:4;stroke-dasharray:none;stroke-opacity:1"
           d="m 122.51202,78.398191 c 0,0 1.28354,-2.227402 1.58038,-2.174176 0.65666,0.117746 6.57734,6.2302 6.57734,6.2302"
           id="path855"
           sodipodi:nodetypes="csc" />
        <path
           style="fill:none;stroke:#000000;stroke-width:1.5;stroke-linecap:butt;stroke-linejoin:miter;stroke-miterlimit:4;stroke-dasharray:none;stroke-opacity:1"
           d="m 96.613825,97.417651 c 0,0 -0.381753,-5.429435 0.569976,-5.404629 1.266382,0.03301 1.350484,0.0014 2.576908,-0.0084"
           id="path857"
           sodipodi:nodetypes="csc" />
        <path
           style="fill:none;stroke:#000000;stroke-width:1.5;stroke-linecap:butt;stroke-linejoin:miter;stroke-miterlimit:4;stroke-dasharray:none;stroke-opacity:1"
           d="m 105.00651,114.10783 c -0.39745,-0.1827 1.15383,0.5291 2.27116,0.44995 1.04956,-0.0744 2.1793,-0.84944 2.68978,-1.79981 0.85994,-1.60097 0.37781,-4.3458 0.0258,-5.45186 l -0.36174,-1.13688"
           id="path859"
           sodipodi:nodetypes="csasc" />
        <path
           style="fill:none;stroke:#000000;stroke-width:1.5;stroke-linecap:butt;stroke-linejoin:miter;stroke-miterlimit:4;stroke-dasharray:none;stroke-opacity:1"
           d="m 130.63397,90.332419 c 0,0 0.8057,0.912271 1.35599,1.10509 1.58489,0.555342 5.03787,-0.04908 5.03787,-0.04908 l 0.32887,-0.07308"
           id="path861"
           sodipodi:nodetypes="cacc" />
        <path
           style="fill:none;stroke:#000000;stroke-width:1.5;stroke-linecap:butt;stroke-linejoin:miter;stroke-miterlimit:4;stroke-dasharray:none;stroke-opacity:1"
           d="m 137.57594,87.113162 c 0,0 -2.99634,-0.146164 -3.3252,0 -0.32887,0.146161 2.22898,4.311809 2.22898,4.311809"
           id="path863" />
        <path
           style="fill:none;stroke:#000000;stroke-width:1.5;stroke-linecap:butt;stroke-linejoin:miter;stroke-miterlimit:4;stroke-dasharray:none;stroke-opacity:1"
           d="m 93.982822,89.890258 c 0,0 -0.739605,-3.924855 0,-3.654076 1.367103,0.500514 5.526803,5.735683 5.526803,5.735683 -0.03584,0.08363 4.716185,0.07304 9.474755,0.124423 5.06327,0.05467 10.15443,0.15902 10.19724,-0.182373 0.35802,-2.855189 -0.15862,-14.396322 0.34945,-14.524275 0.15749,-0.03966 1.26979,0.378289 2.89292,1.082329 1.11354,0.483 2.46749,1.10065 3.9185,1.797571 1.45337,0.698055 3.00412,1.475638 4.50818,2.277101 2.18637,1.165042 4.2741,2.380543 5.82066,3.475562 0.20682,0.146436 0.54809,0.526849 0.54809,0.526849 0.34664,0.41623 2.37727,3.11001 -0.48392,5.3144 -3.02518,2.330739 -6.89828,2.160709 -6.94275,2.338607 -0.15282,6.820021 -0.43456,14.264161 -0.68527,20.322151 -0.0252,2.2948 -5.35424,3.34561 -5.54431,-0.65587 l -0.27459,-5.78079 c -0.0752,-1.58361 -1.1521,-2.40152 -2.09062,-2.45449 -4.84059,-0.27321 -12.38728,0.096 -15.62171,1.8787 -1.4286,0.78738 0.0684,5.49481 -0.83524,7.40264 -0.82732,1.55063 -1.62501,2.21485 -3.15764,2.38143 -1.680873,0.1827 -4.457972,-0.0731 -4.750299,-4.60414 -0.292325,-4.53105 -0.219244,-15.274044 -0.219244,-15.274044 0,0 -9.556858,-4.801103 -9.281351,-11.61996 0.06719,-1.662883 0.839646,-3.258055 1.129403,-2.883212 l 2.963162,3.833273 z"
           id="path853"
           sodipodi:nodetypes="cscssssssscsccsssscsscsscc" />
      </g>
      <text
         transform="matrix(0.7630365,0,0,0.7630365,145.07038,26.733625)"
         style="font-style:normal;font-variant:normal;font-weight:normal;font-stretch:normal;font-size:23.0723px;line-height:1.25;font-family:'Mr Dafoe';-inkscape-font-specification:'Mr Dafoe, @wght=617,wdth=80.1';font-variant-ligatures:normal;font-variant-caps:normal;font-variant-numeric:normal;font-variant-east-asian:normal;font-variation-settings:'wdth' 80.09999999999999432, 'wght' 617;white-space:pre;shape-inside:url(#rect897);"
         id="text895"
         xml:space="preserve"><tspan
           x="-134.17773"
           y="97.429596"><tspan
             style="font-style:normal;font-variant:normal;font-weight:normal;font-stretch:normal;font-size:23.0723px;font-family:'Mr Dafoe';-inkscape-font-specification:'Mr Dafoe, @wght=617,wdth=80.1';font-variant-ligatures:normal;font-variant-caps:normal;font-variant-numeric:normal;font-variant-east-asian:normal;font-variation-settings:'wdth' 80.1, 'wght' 617">Depelito´s</tspan></tspan></text>
      <text
         transform="matrix(1.0002824,0,0,1.0002824,20.802323,-113.46722)"
         style="font-style:normal;font-variant:normal;font-weight:bold;font-stretch:normal;font-size:6.35px;line-height:1.25;font-family:Candara;-inkscape-font-specification:'Candara, Bold';font-variant-ligatures:normal;font-variant-caps:normal;font-variant-numeric:normal;font-variant-east-asian:normal;white-space:pre;shape-inside:url(#rect1039);"
         id="text1037"
         xml:space="preserve"><tspan
           x="25.630859"
           y="224.9165"><tspan
             style="font-style:normal;font-variant:normal;font-weight:bold;font-stretch:normal;font-size:6.35px;font-family:Candara;-inkscape-font-specification:'Candara, Bold';font-variant-ligatures:normal;font-variant-caps:normal;font-variant-numeric:normal;font-variant-east-asian:normal">TIENDA DE MASCOTAS</tspan></tspan></text>
    </g>
    <text
       style="line-height:1.25;font-family:Bahnschrift;font-size:23.0722717px;-inkscape-font-specification:'Bahnschrift, @wght=617,wdth=80.1';font-variation-settings:'wght' 617, 'wdth' 80.09999999999999432;white-space:pre;shape-inside:url(#rect222);"
       id="text220"
       xml:space="preserve" />
    <text
       style="line-height:1.25;font-family:Bahnschrift;font-size:23.0722717px;-inkscape-font-specification:'Bahnschrift, @wght=617,wdth=80.1';font-variation-settings:'wght' 617, 'wdth' 80.09999999999999432;white-space:pre;shape-inside:url(#rect228);"
       id="text226"
       xml:space="preserve" />
  </g>
</svg>
